<?xml version="1.0" encoding="UTF-8"?>
<svg version="1.1" xmlns="http://www.w3.org/2000/svg" width="977" height="324">
<path d="M0 0 C-4.37347693 7.70832059 -4.37347693 7.70832059 -6.55859375 10.55078125 C-7.01991699 11.15704346 -7.48124023 11.76330566 -7.95654297 12.38793945 C-8.6896167 13.34059692 -8.6896167 13.34059692 -9.4375 14.3125 C-13.82853866 20.09157294 -18.14110073 25.9173116 -22.375 31.8125 C-28.58158562 40.44330056 -34.87681103 49.00634207 -41.19433594 57.55615234 C-44.31939357 61.78571249 -47.44124051 66.01763661 -50.5625 70.25 C-51.13411865 71.02400146 -51.7057373 71.79800293 -52.29467773 72.59545898 C-52.83809814 73.33223877 -53.38151855 74.06901855 -53.94140625 74.828125 C-54.41263916 75.4665332 -54.88387207 76.10494141 -55.36938477 76.76269531 C-56.98229441 78.8460635 -56.98229441 78.8460635 -57.85908699 80.7185545 C-59.55961224 83.76195427 -60.84518277 85.67044592 -64.28744793 86.65277672 C-67.27873674 86.90588974 -70.20240482 86.9306411 -73.2043457 86.88696289 C-74.35642454 86.89807791 -75.50850338 86.90919292 -76.6954937 86.92064476 C-79.90462076 86.94484177 -83.11197082 86.93778792 -86.32107329 86.91809344 C-89.80030161 86.90457116 -93.27923067 86.93183313 -96.75837708 86.9546051 C-102.88003488 86.98958883 -109.00135801 87.00015019 -115.12310791 86.99639893 C-124.44229187 86.99199762 -133.76077835 87.03965085 -143.07974601 87.09961009 C-147.55892453 87.12842882 -152.03811334 87.1555188 -156.51730347 87.1824646 C-157.41738935 87.1878906 -158.31747524 87.1933166 -159.24483645 87.19890702 C-169.38648286 87.25900815 -179.52818855 87.30325571 -189.66992188 87.34570312 C-191.05241863 87.3515779 -191.05241863 87.3515779 -192.46284461 87.35757136 C-202.90124171 87.40185605 -213.33964316 87.44199756 -223.77807617 87.47680664 C-232.26396804 87.50516652 -240.74980192 87.54049249 -249.23563272 87.58346039 C-254.52855499 87.60988537 -259.82141323 87.6279902 -265.11438787 87.63949764 C-268.38288414 87.64866993 -271.65129973 87.66603947 -274.91974831 87.68567657 C-276.41926421 87.69308648 -277.91880081 87.69722912 -279.41833496 87.69767189 C-293.36992991 87.705116 -305.3041516 87.80605475 -315.875 97.6875 C-318.96184929 102.4993533 -320.60712778 107.45737813 -319.62109375 113.2109375 C-317.81992491 118.58356685 -314.89280266 123.32634523 -309.88671875 126.22265625 C-302.89922212 129.49914626 -296.36802217 130.14998356 -288.69293213 130.10679626 C-287.46085089 130.1059612 -287.46085089 130.1059612 -286.20387912 130.10510927 C-283.45913125 130.10208015 -280.71445677 130.09190078 -277.96972656 130.08178711 C-275.99807308 130.07822953 -274.0264187 130.07514394 -272.05476379 130.07249451 C-267.81017238 130.06594709 -263.56560208 130.05638919 -259.32102203 130.04459953 C-252.59461427 130.02627145 -245.86821159 130.01669699 -239.14178467 130.00868225 C-220.01425936 129.98456212 -200.88676511 129.9488244 -181.75927734 129.90405273 C-171.19394257 129.87939993 -160.62862019 129.86209965 -150.06326079 129.85249335 C-143.39295843 129.84599361 -136.72275879 129.83052423 -130.05249166 129.80817592 C-125.87688188 129.79633786 -121.70129612 129.79307225 -117.52567101 129.79207802 C-115.607826 129.78995358 -113.68998083 129.7844432 -111.77215767 129.7750473 C-96.13207549 129.70147436 -80.61339706 130.40925111 -65.375 134.25 C-64.50166016 134.46543457 -63.62832031 134.68086914 -62.72851562 134.90283203 C-34.23664347 142.18189141 -7.30742234 158.23792945 8.14160156 183.89599609 C18.79826199 202.60342316 22.94200172 224.37756471 17.5 245.5625 C8.09311889 272.58650829 -10.5726608 293.92734944 -36 307 C-45.98899013 311.81118134 -56.27132696 315.35574951 -67.0625 317.875 C-67.87468994 318.06610352 -68.68687988 318.25720703 -69.52368164 318.45410156 C-85.42876581 321.86178169 -101.66996069 322.31391787 -117.87109375 322.4140625 C-119.92869729 322.43380823 -121.9862941 322.4542647 -124.04388428 322.47535706 C-135.6719842 322.58741982 -147.3004831 322.64245655 -158.92895508 322.70043945 C-160.17490291 322.70672772 -161.42085073 322.713016 -162.70455456 322.71949482 C-173.66990801 322.77446928 -173.66990801 322.77446928 -178.44797325 322.79434395 C-197.16749574 322.87316243 -215.88057832 323.09127154 -234.59735775 323.42173767 C-248.83577913 323.67157397 -263.07428624 323.85541732 -277.31417179 323.99859619 C-286.99081028 324.09854684 -296.66357925 324.25332625 -306.33819091 324.47548801 C-313.03831643 324.62415264 -319.7372298 324.70508211 -326.43892491 324.73526639 C-330.34376997 324.75497167 -334.24233876 324.80437103 -338.14522552 324.93353462 C-361.18260742 325.6681803 -361.18260742 325.6681803 -367.52600479 321.23443985 C-371.67782195 317.06972455 -374.47438813 312.39358449 -376.9745512 307.10356998 C-378.31928799 304.34502373 -380.03628703 301.94952948 -381.875 299.5 C-382.91780777 298.00079308 -383.95950465 296.50081274 -385 295 C-389.45751482 288.59829651 -393.97283839 282.24507577 -398.5625 275.9375 C-403.74629892 268.81265549 -408.75916778 261.5827039 -413.68774414 254.27905273 C-415.83015834 251.11433178 -417.95882706 248.05066917 -420.37109375 245.08203125 C-422 243 -422 243 -422 241 C-410.77897032 240.17374791 -399.6225714 239.84025011 -388.37329102 239.81054688 C-386.66455424 239.80254681 -384.95581938 239.79412795 -383.24708652 239.78532982 C-379.58500946 239.76735001 -375.92293644 239.75224457 -372.26083755 239.73946762 C-366.38707453 239.71896666 -360.51335073 239.69204992 -354.63961792 239.66433716 C-346.27187002 239.62542377 -337.90411422 239.589345 -329.53634644 239.55499268 C-316.56138447 239.50139873 -303.58647819 239.43820969 -290.61157227 239.37255859 C-289.54435861 239.36717064 -288.47714495 239.36178268 -287.37759149 239.35623145 C-282.01832163 239.32915381 -276.65905243 239.30194822 -271.29978371 239.27464676 C-264.93135861 239.24222555 -258.56293141 239.21023265 -252.19450378 239.17831421 C-242.24663561 239.12842755 -232.29877005 239.07804368 -222.35090637 239.02726746 C-218.92426107 239.00977946 -215.49761521 238.99240859 -212.07096863 238.97517395 C-195.84694068 238.89346495 -179.62309969 238.80169497 -163.39938354 238.67016602 C-159.45727376 238.63873217 -155.51522263 238.61433307 -151.57302856 238.59643555 C-147.09876297 238.57603081 -142.62481394 238.54241381 -138.15073013 238.49737167 C-136.59402048 238.48390026 -135.03726018 238.47512195 -133.48049545 238.47195816 C-122.64791457 238.44620036 -110.64659626 238.38124071 -102 231 C-96.67411833 225.47039608 -95.69610617 221.23254617 -95.78515625 213.72265625 C-96.26880637 207.59349024 -99.48691196 203.89766695 -104 200 C-114.71858271 192.4969921 -128.02462075 193.72842767 -140.54052734 193.8046875 C-142.39967691 193.80853212 -144.25882858 193.81145676 -146.11798096 193.8135376 C-150.10495269 193.81983315 -154.09183848 193.83233112 -158.07877731 193.84967041 C-164.40314825 193.8768829 -170.72749137 193.88854024 -177.0519104 193.89794922 C-191.63066667 193.92197393 -206.20934959 193.96595564 -220.78805542 194.01040649 C-234.13109192 194.05091997 -247.47410248 194.08704414 -260.81718791 194.10683632 C-267.08274776 194.11670749 -273.34817404 194.13628618 -279.6136806 194.16369629 C-283.541414 194.17879961 -287.46913012 194.18528324 -291.39688873 194.1896286 C-293.19415238 194.19331831 -294.99141346 194.20040737 -296.7886467 194.21149445 C-333.60338526 194.43110806 -374.99990192 189.36568375 -403 163 C-403.4851709 162.55962402 -403.9703418 162.11924805 -404.47021484 161.66552734 C-415.44632115 151.66986512 -423.78798758 140.00728339 -429 126 C-429.391875 124.96488281 -429.78375 123.92976563 -430.1875 122.86328125 C-436.60238754 102.9726751 -434.28016892 81.32156157 -425.25 62.75 C-421.79965368 56.01491753 -417.75566105 49.89624643 -413 44 C-412.44828125 43.29617187 -411.8965625 42.59234375 -411.328125 41.8671875 C-389.64394738 15.53640039 -354.46541533 5.44698773 -321.82487106 2.24279976 C-298.79922732 0.26372863 -275.46585403 0.79293763 -252.3759706 0.69667697 C-247.19369193 0.67423007 -242.01143734 0.64707423 -236.82917786 0.62062073 C-228.06345819 0.57655655 -219.29772813 0.53583108 -210.53198242 0.49731445 C-201.75559812 0.45873009 -192.9792349 0.4172641 -184.20288086 0.37231445 C-122.80155522 0.05802435 -61.40209936 -0.06289218 0 0 Z " fill="#0775AE" transform="translate(560,0)"/>
<path d="M0 0 C42.53761356 -0.1209091 42.53761356 -0.1209091 60.47070312 -0.14648438 C72.81457289 -0.16423081 85.15838087 -0.1850034 97.50219727 -0.22631836 C106.49527882 -0.25640377 115.48830987 -0.275618 124.48144037 -0.28226548 C129.23461532 -0.28614563 133.9876459 -0.29513766 138.74077415 -0.31719017 C163.58075087 -0.42783545 187.27220942 -0.27143069 211 8 C211.65194336 8.22558594 212.30388672 8.45117188 212.97558594 8.68359375 C226.5425638 13.48390376 238.07917206 20.68894235 249 30 C249.75925781 30.62519531 250.51851562 31.25039063 251.30078125 31.89453125 C274.17843023 51.29509368 288.11716542 81.60862378 290.59033203 111.21118164 C292.86431551 143.8084219 282.18187106 174.53189554 261.16015625 199.390625 C241.90454383 221.49691081 215.38758243 233.95154866 186.875 239.25 C186.00576904 239.41314697 185.13653809 239.57629395 184.2409668 239.74438477 C171.42680172 241.98480685 158.51227415 242.14617676 145.53955078 242.11352539 C143.94144696 242.11324254 142.34334301 242.11340315 140.74523926 242.1139679 C136.45280509 242.11425207 132.16039949 242.10841733 127.8679719 242.10139394 C123.36501623 242.0950966 118.86205974 242.09455159 114.35910034 242.09336853 C105.852645 242.09027389 97.34620267 242.08208592 88.83975303 242.07201904 C77.33047028 242.0586973 65.8211839 242.0533429 54.31189537 242.04751682 C36.20792052 242.03814457 18.10397312 242.01821325 0 242 C0 268.73 0 295.46 0 323 C-29.7 323 -59.4 323 -90 323 C-90 270.2 -90 217.4 -90 163 C-71.79199219 163.02320313 -53.58398438 163.04640625 -34.82421875 163.0703125 C-23.29882775 163.08052984 -11.77343952 163.09025259 -0.24804688 163.09765625 C5.80672211 163.10157178 11.861491 163.10561268 17.91625977 163.10986328 C19.05450214 163.11065453 19.05450214 163.11065453 20.21573931 163.11146176 C32.45380051 163.12015168 44.69184285 163.13591452 56.92989288 163.15430559 C69.49681272 163.17303286 82.06372272 163.1841227 94.63065594 163.18817699 C102.38018082 163.19091619 110.12965238 163.19955631 117.87916084 163.21583293 C123.82939517 163.22769107 129.77960239 163.22890421 135.72984886 163.22621536 C138.16503095 163.22676446 140.6002151 163.23072774 143.03538513 163.23841095 C146.36845601 163.24840912 149.7013016 163.24595105 153.03437805 163.24050903 C153.99063766 163.24633472 154.94689727 163.2521604 155.93213445 163.25816262 C168.76708781 163.20179234 180.71823834 160.71914814 190.40625 151.78515625 C197.64765673 143.67407077 201.70164688 133.37522592 201.27734375 122.49609375 C200.20982844 112.88845595 196.01211032 103.93044661 189.08203125 97.11328125 C176.75826277 87.34774016 162.9302983 86.69853643 147.81005859 86.77294922 C146.19284065 86.77351428 144.57562219 86.77319491 142.95840454 86.77206421 C138.59545383 86.77149341 134.23261444 86.78320323 129.86968946 86.79721212 C125.29998313 86.80976527 120.73027389 86.81089358 116.16055298 86.81326294 C107.51936554 86.81946428 98.87822906 86.8358568 90.237064 86.85596192 C78.55161913 86.88255643 66.8661602 86.89330444 55.18069267 86.90496635 C36.78709032 86.92373843 18.39359548 86.96359306 0 87 C0 58.29 0 29.58 0 0 Z " fill="#0775AD" transform="translate(686,1)"/>
<path d="M0 0 C7.45168725 -0.27424716 14.26256072 0.73487666 21.5625 2.1875 C22.71419678 2.41453613 23.86589355 2.64157227 25.05249023 2.87548828 C33.95600502 4.68380969 42.46774624 6.86643356 51 10 C51.68852051 10.24975586 52.37704102 10.49951172 53.08642578 10.75683594 C68.02458437 16.25558591 80.63664822 23.69624622 92 35 C92.69609375 35.66128906 93.3921875 36.32257813 94.109375 37.00390625 C105.66783145 48.80876391 109.73262747 63.59592847 111.3671875 79.59375 C110.90093607 83.918976 109.09563326 85.98999791 106.125 88.9375 C105.62323242 89.45546143 105.12146484 89.97342285 104.60449219 90.50708008 C87.97659132 107.36286805 66.81894196 117.53321893 43.9375 122.875 C43.12531006 123.06610352 42.31312012 123.25720703 41.47631836 123.45410156 C25.57123419 126.86178169 9.33003931 127.31391787 -6.87109375 127.4140625 C-8.92869729 127.43380823 -10.9862941 127.4542647 -13.04388428 127.47535706 C-24.6719842 127.58741982 -36.3004831 127.64245655 -47.92895508 127.70043945 C-49.17490291 127.70672772 -50.42085073 127.713016 -51.70455456 127.71949482 C-62.66990801 127.77446928 -62.66990801 127.77446928 -67.44797325 127.79434395 C-86.16749574 127.87316243 -104.88057832 128.09127154 -123.59735775 128.42173767 C-137.83577913 128.67157397 -152.07428624 128.85541732 -166.31417179 128.99859619 C-175.99081028 129.09854684 -185.66357925 129.25332625 -195.33819091 129.47548801 C-202.03831643 129.62415264 -208.7372298 129.70508211 -215.43892491 129.73526639 C-219.34376997 129.75497167 -223.24233876 129.80437103 -227.14522552 129.93353462 C-250.18260742 130.6681803 -250.18260742 130.6681803 -256.52600479 126.23443985 C-260.67782195 122.06972455 -263.47438813 117.39358449 -265.9745512 112.10356998 C-267.31928799 109.34502373 -269.03628703 106.94952948 -270.875 104.5 C-271.91780777 103.00079308 -272.95950465 101.50081274 -274 100 C-278.45751482 93.59829651 -282.97283839 87.24507577 -287.5625 80.9375 C-292.74629892 73.81265549 -297.75916778 66.5827039 -302.68774414 59.27905273 C-304.83015834 56.11433178 -306.95882706 53.05066917 -309.37109375 50.08203125 C-311 48 -311 48 -311 46 C-299.77897032 45.17374791 -288.6225714 44.84025011 -277.37329102 44.81054688 C-275.66455424 44.80254681 -273.95581938 44.79412795 -272.24708652 44.78532982 C-268.58500946 44.76735001 -264.92293644 44.75224457 -261.26083755 44.73946762 C-255.38707453 44.71896666 -249.51335073 44.69204992 -243.63961792 44.66433716 C-235.27187002 44.62542377 -226.90411422 44.589345 -218.53634644 44.55499268 C-205.56138447 44.50139873 -192.58647819 44.43820969 -179.61157227 44.37255859 C-178.54435861 44.36717064 -177.47714495 44.36178268 -176.37759149 44.35623145 C-171.01832163 44.32915381 -165.65905243 44.30194822 -160.29978371 44.27464676 C-153.93135861 44.24222555 -147.56293141 44.21023265 -141.19450378 44.17831421 C-131.24663561 44.12842755 -121.29877005 44.07804368 -111.35090637 44.02726746 C-107.92426107 44.00977946 -104.49761521 43.99240859 -101.07096863 43.97517395 C-84.84694068 43.89346495 -68.62309969 43.80169497 -52.39938354 43.67016602 C-48.45727376 43.63873217 -44.51522263 43.61433307 -40.57302856 43.59643555 C-36.09876297 43.57603081 -31.62481394 43.54241381 -27.15073013 43.49737167 C-25.59402048 43.48390026 -24.03726018 43.47512195 -22.48049545 43.47195816 C-11.64791457 43.44620036 0.35340374 43.38124071 9 36 C14.32588167 30.47039608 15.30389383 26.23254617 15.21484375 18.72265625 C14.73119363 12.59349024 11.51308804 8.89766695 7 5 C4.71289341 3.5402459 2.40199263 2.27164316 0 1 C0 0.67 0 0.34 0 0 Z " fill="#07679D" transform="translate(449,195)"/>
<path d="M0 0 C2.3431213 0.25561323 4.67843403 0.59270772 7 1 C7.33 1.66 7.66 2.32 8 3 C5.36 2.34 2.72 1.68 0 1 C0 0.67 0 0.34 0 0 Z " fill="#000000" transform="translate(834,152)"/>
<path d="M0 0 C0.66 0 1.32 0 2 0 C1.67 0.66 1.34 1.32 1 2 C0.67 1.34 0.34 0.68 0 0 Z " fill="#000000" transform="translate(844,155)"/>
<path d="M0 0 C2 1 2 1 2 1 Z " fill="#574643" transform="translate(93,106)"/>
<path d="" fill="#62493C" transform="translate(0,0)"/>
</svg>
